<svg xmlns="http://www.w3.org/2000/svg" version="1.1" xmlns:xlink="http://www.w3.org/1999/xlink" xmlns:svgjs="http://svgjs.dev/svgjs" width="1500" height="1500" viewBox="0 0 1500 1500"><rect width="1500" height="1500" fill="#ffffff"></rect><g transform="matrix(0.6666666666666666,0,0,0.6666666666666666,249.39393939393938,674.8914925677753)"><svg viewBox="0 0 396 59" data-background-color="#ffffff" preserveAspectRatio="xMidYMid meet" height="223" width="1500" xmlns="http://www.w3.org/2000/svg" xmlns:xlink="http://www.w3.org/1999/xlink"><g id="tight-bounds" transform="matrix(1,0,0,1,0.2400000000000091,0.3076363576317078)"><svg viewBox="0 0 395.52 58.38472728473656" height="58.38472728473656" width="395.52"><g><svg viewBox="0 0 561.9196088540716 82.94782341952572" height="58.38472728473656" width="395.52"><g transform="matrix(1,0,0,1,166.39960885407157,15.194552405827721)"><svg viewBox="0 0 395.52 52.558718607870276" height="52.558718607870276" width="395.52"><g id="textblocktransform"><svg viewBox="0 0 395.52 52.558718607870276" height="52.558718607870276" width="395.52" id="textblock"><g><svg viewBox="0 0 395.52 52.558718607870276" height="52.558718607870276" width="395.52"><g transform="matrix(1,0,0,1,0,0)"><svg width="395.52" viewBox="1.5 -32.9 252.83 33.6" height="52.558718607870276" data-palette-color="#00ffcc"><path d="M14.9-27.25L14.9-27.25 14.7-27.25Q13.95-25.15 12.93-22.25 11.9-19.35 10.83-16.28 9.75-13.2 8.8-10.55L8.8-10.55 8.55-9.8Q8.25-8.9 7.8-7.55 7.35-6.2 6.85-4.73 6.35-3.25 5.9-1.98 5.45-0.7 5.2 0.1L5.2 0.1Q4.85 0.25 4.48 0.33 4.1 0.4 3.55 0.4L3.55 0.4Q2.75 0.4 2.13-0.03 1.5-0.45 1.5-1.4L1.5-1.4Q1.5-1.85 1.65-2.33 1.8-2.8 2-3.35L2-3.35Q2.6-5.05 3.48-7.5 4.35-9.95 5.4-12.85 6.45-15.75 7.6-18.8 8.75-21.85 9.85-24.75 10.95-27.65 11.9-30.05L11.9-30.05Q12.3-30.25 13.1-30.45 13.9-30.65 14.75-30.65L14.75-30.65Q15.75-30.65 16.68-30.35 17.6-30.05 17.85-29.35L17.85-29.35Q19.05-26.45 20.43-22.78 21.8-19.1 23.2-15.13 24.6-11.15 25.88-7.4 27.15-3.65 28.15-0.6L28.15-0.6Q27.8-0.15 27.23 0.13 26.65 0.4 25.95 0.4L25.95 0.4Q25 0.4 24.5-0.03 24-0.45 23.65-1.45L23.65-1.45 20.9-9.6 20.5-11Q19.5-14.05 18.43-17.15 17.35-20.25 16.43-22.9 15.5-25.55 14.9-27.25ZM22.65-8.1L6.6-8.1 7.9-11.45 21.85-11.45 22.65-8.1ZM37.35-18.8L37.35-18.8 37.35-10.9 33.35-10.9 33.35-18.5Q33.35-19.65 33.77-20.33 34.2-21 35.2-21.65L35.2-21.65Q36.5-22.5 38.75-23.13 41-23.75 43.75-23.75L43.75-23.75Q47.75-23.75 47.75-21.75L47.75-21.75Q47.75-21.25 47.6-20.83 47.45-20.4 47.2-20.1L47.2-20.1Q46.7-20.2 45.9-20.3 45.1-20.4 44.3-20.4L44.3-20.4Q42-20.4 40.25-19.93 38.5-19.45 37.35-18.8ZM33.35-1.55L33.35-13.2 37.35-12.6 37.35-0.1Q37.1 0 36.6 0.13 36.1 0.25 35.5 0.25L35.5 0.25Q34.45 0.25 33.9-0.18 33.35-0.6 33.35-1.55L33.35-1.55ZM52.1-30.4L52.1-30.4Q52.1-31.45 52.85-32.18 53.6-32.9 54.7-32.9L54.7-32.9Q55.85-32.9 56.55-32.18 57.25-31.45 57.25-30.4L57.25-30.4Q57.25-29.35 56.55-28.63 55.85-27.9 54.7-27.9L54.7-27.9Q53.6-27.9 52.85-28.63 52.1-29.35 52.1-30.4ZM52.7-1.55L52.7-13.2 56.7-13.2 56.7-0.1Q56.45 0 55.95 0.13 55.45 0.25 54.85 0.25L54.85 0.25Q53.8 0.25 53.25-0.18 52.7-0.6 52.7-1.55L52.7-1.55ZM56.7-21.5L56.7-11.25 52.7-11.25 52.7-23Q52.95-23.1 53.47-23.23 54-23.35 54.6-23.35L54.6-23.35Q55.65-23.35 56.17-22.93 56.7-22.5 56.7-21.5L56.7-21.5ZM84.49-15.25L84.49-15.25 84.49-10.15 80.49-10.15 80.49-15.05Q80.49-17.85 78.92-19.15 77.34-20.45 74.69-20.45L74.69-20.45Q72.69-20.45 71.14-19.95 69.59-19.45 68.49-18.8L68.49-18.8 68.49-10.15 64.49-10.15 64.49-18.6Q64.49-19.65 64.92-20.33 65.34-21 66.39-21.65L66.39-21.65Q67.69-22.4 69.84-23.08 71.99-23.75 74.69-23.75L74.69-23.75Q79.24-23.75 81.87-21.68 84.49-19.6 84.49-15.25ZM64.49-1.55L64.49-12.9 68.49-12.9 68.49-0.1Q68.24 0 67.74 0.13 67.24 0.25 66.64 0.25L66.64 0.25Q65.59 0.25 65.04-0.18 64.49-0.6 64.49-1.55L64.49-1.55ZM80.49-1.55L80.49-12.9 84.49-12.9 84.49-0.1Q84.24 0 83.72 0.13 83.19 0.25 82.64 0.25L82.64 0.25Q81.54 0.25 81.02-0.18 80.49-0.6 80.49-1.55L80.49-1.55ZM123.99-15.55L123.99-15.55Q123.99-9.3 120.99-6.08 117.99-2.85 112.14-2.85L112.14-2.85Q110.69-2.85 109.31-2.95 107.94-3.05 106.74-3.35L106.74-3.35 106.74-27.15Q107.74-27.35 108.94-27.45 110.14-27.55 111.69-27.55L111.69-27.55Q115.09-27.55 117.86-26.33 120.64-25.1 122.31-22.48 123.99-19.85 123.99-15.55ZM128.14-15.55L128.14-15.55Q128.14-20.7 126.06-24.1 123.99-27.5 120.31-29.23 116.64-30.95 111.74-30.95L111.74-30.95Q109.79-30.95 107.84-30.8 105.89-30.65 104.34-30.15L104.34-30.15Q103.54-29.9 103.11-29.48 102.69-29.05 102.69-28.25L102.69-28.25 102.69-2.55Q102.69-0.9 104.79-0.25L104.79-0.25Q106.59 0.3 108.61 0.43 110.64 0.55 112.19 0.55L112.19 0.55Q117.04 0.55 120.61-1.2 124.19-2.95 126.16-6.53 128.14-10.1 128.14-15.55ZM154.64-14.65L154.64-9.95 150.64-9.95 150.64-14.55Q150.64-17.55 148.96-19 147.28-20.45 144.64-20.45L144.64-20.45Q142.69-20.45 141.01-19.7 139.34-18.95 138.19-17.9L138.19-17.9 137.44-21.15Q138.64-22 140.61-22.88 142.59-23.75 145.19-23.75L145.19-23.75Q149.34-23.75 151.99-21.5 154.64-19.25 154.64-14.65L154.64-14.65ZM134.69-1.55L134.69-13.2 138.69-13.2 138.69-0.1Q138.44 0 137.94 0.13 137.44 0.25 136.84 0.25L136.84 0.25Q135.78 0.25 135.24-0.18 134.69-0.6 134.69-1.55L134.69-1.55ZM150.64-1.55L150.64-13.15 154.64-13.1 154.64-0.1Q154.39 0 153.86 0.13 153.34 0.25 152.79 0.25L152.79 0.25Q151.69 0.25 151.16-0.18 150.64-0.6 150.64-1.55L150.64-1.55ZM138.69-30.95L138.69-11.25 134.69-11.25 134.69-32.4Q134.94-32.5 135.46-32.63 135.99-32.75 136.59-32.75L136.59-32.75Q137.64-32.75 138.16-32.33 138.69-31.9 138.69-30.95L138.69-30.95ZM161.78-30.4L161.78-30.4Q161.78-31.45 162.53-32.18 163.28-32.9 164.38-32.9L164.38-32.9Q165.53-32.9 166.23-32.18 166.93-31.45 166.93-30.4L166.93-30.4Q166.93-29.35 166.23-28.63 165.53-27.9 164.38-27.9L164.38-27.9Q163.28-27.9 162.53-28.63 161.78-29.35 161.78-30.4ZM162.38-1.55L162.38-13.2 166.38-13.2 166.38-0.1Q166.13 0 165.63 0.13 165.13 0.25 164.53 0.25L164.53 0.25Q163.48 0.25 162.93-0.18 162.38-0.6 162.38-1.55L162.38-1.55ZM166.38-21.5L166.38-11.25 162.38-11.25 162.38-23Q162.63-23.1 163.16-23.23 163.68-23.35 164.28-23.35L164.28-23.35Q165.33-23.35 165.86-22.93 166.38-22.5 166.38-21.5L166.38-21.5ZM192.83-16L192.83-16 192.83-10.25 188.83-10.25 188.83-15.7Q188.83-18.15 187.41-19.3 185.98-20.45 183.63-20.45L183.63-20.45Q182.08-20.45 180.63-19.95 179.18-19.45 178.18-18.8L178.18-18.8 178.18-10.25 174.18-10.25 174.18-18.6Q174.18-19.6 174.61-20.3 175.03-21 176.08-21.65L176.08-21.65Q177.43-22.5 179.51-23.13 181.58-23.75 183.68-23.75L183.68-23.75Q186.23-23.75 188.18-22.98 190.13-22.2 191.08-20.85L191.08-20.85Q191.38-20.55 191.58-20.3 191.78-20.05 191.98-19.65L191.98-19.65Q192.33-19.05 192.58-18.1 192.83-17.15 192.83-16ZM207.48-15.9L207.48-15.9 207.48-10.25 203.48-10.25 203.48-15.7Q203.48-18.15 202.08-19.3 200.68-20.45 198.33-20.45L198.33-20.45Q196.58-20.45 194.96-19.73 193.33-19 192.03-17.65L192.03-17.65 190.43-20.55Q191.73-21.85 193.83-22.8 195.93-23.75 198.63-23.75L198.63-23.75Q201.33-23.75 203.31-22.9 205.28-22.05 206.38-20.3 207.48-18.55 207.48-15.9ZM174.18-1.55L174.18-12.9 178.18-12.9 178.18-0.1Q177.93 0 177.43 0.13 176.93 0.25 176.33 0.25L176.33 0.25Q175.28 0.25 174.73-0.18 174.18-0.6 174.18-1.55L174.18-1.55ZM188.83-1.55L188.83-12.9 192.83-12.9 192.83-0.1Q192.58 0 192.06 0.13 191.53 0.25 190.98 0.25L190.98 0.25Q189.88 0.25 189.36-0.18 188.83-0.6 188.83-1.55L188.83-1.55ZM203.48-1.55L203.48-12.9 207.48-12.9 207.48-0.1Q207.23 0 206.71 0.13 206.18 0.25 205.63 0.25L205.63 0.25Q204.53 0.25 204.01-0.18 203.48-0.6 203.48-1.55L203.48-1.55ZM223.23 0.7L223.23 0.7Q218.53 0.7 215.95-1.15 213.38-3 213.38-6.5L213.38-6.5Q213.38-9.75 215.55-11.48 217.73-13.2 221.58-13.55L221.58-13.55 228.68-14.25 228.68-15.65Q228.68-18.15 227.18-19.3 225.68-20.45 223.13-20.45L223.13-20.45Q221.08-20.45 219.2-19.85 217.33-19.25 215.88-18.5L215.88-18.5Q215.48-18.85 215.15-19.33 214.83-19.8 214.83-20.3L214.83-20.3Q214.83-21.6 216.28-22.3L216.28-22.3Q217.63-23 219.4-23.38 221.18-23.75 223.18-23.75L223.18-23.75Q227.53-23.75 230.08-21.8 232.63-19.85 232.63-15.65L232.63-15.65 232.63-3.8Q232.63-2.7 232.2-2.13 231.78-1.55 230.93-1.05L230.93-1.05Q229.73-0.4 227.73 0.15 225.73 0.7 223.23 0.7ZM223.23-2.6L223.23-2.6Q225.33-2.6 226.7-3.03 228.08-3.45 228.68-3.85L228.68-3.85 228.68-11.1 222.48-10.45Q219.88-10.25 218.63-9.3 217.38-8.35 217.38-6.55L217.38-6.55Q217.38-4.7 218.85-3.65 220.33-2.6 223.23-2.6ZM243.93-18.8L243.93-18.8 243.93-10.9 239.93-10.9 239.93-18.5Q239.93-19.65 240.35-20.33 240.78-21 241.78-21.65L241.78-21.65Q243.08-22.5 245.33-23.13 247.58-23.75 250.33-23.75L250.33-23.75Q254.33-23.75 254.33-21.75L254.33-21.75Q254.33-21.25 254.18-20.83 254.03-20.4 253.78-20.1L253.78-20.1Q253.28-20.2 252.48-20.3 251.68-20.4 250.88-20.4L250.88-20.4Q248.58-20.4 246.83-19.93 245.08-19.45 243.93-18.8ZM239.93-1.55L239.93-13.2 243.93-12.6 243.93-0.1Q243.68 0 243.18 0.13 242.68 0.25 242.08 0.25L242.08 0.25Q241.03 0.25 240.48-0.18 239.93-0.6 239.93-1.55L239.93-1.55Z" opacity="1" transform="matrix(1,0,0,1,0,0)" fill="#000000" class="wordmark-text-0" data-fill-palette-color="primary" id="text-0"></path></svg></g></svg></g></svg></g></svg></g><g><svg viewBox="0 0 153.9917568 82.94782341952572" height="82.94782341952572" width="153.9917568"><g><svg xmlns="http://www.w3.org/2000/svg" xmlns:xlink="http://www.w3.org/1999/xlink" version="1.1" x="0" y="0" viewBox="100.5 107.8 649.4 349.8" style="enable-background:new 0 -142.5 850.4 850.4;" xml:space="preserve" height="82.94782341952572" width="153.9917568" class="icon-icon-0" data-fill-palette-color="accent" id="icon-0"><polygon points="526.1,152 526.1,201.9 691.5,282.7 526.1,363.6 526.1,413.5 749.9,303.3 749.9,261.5 " fill="#000000" data-fill-palette-color="accent"></polygon><polygon points="100.5,303.3 324.3,413.5 324.3,363.6 158.9,282.7 324.3,201.9 324.3,152 100.5,261.5 " fill="#000000" data-fill-palette-color="accent"></polygon><polygon points="345.5,457.6 394.8,457.6 504.9,107.8 456,107.8 " fill="#000000" data-fill-palette-color="accent"></polygon></svg></g></svg></g></svg></g><defs></defs></svg><rect width="395.52" height="58.38472728473656" fill="none" stroke="none" visibility="hidden"></rect></g></svg></g></svg>